<?xml version="1.0" standalone="no"?>
<!DOCTYPE svg PUBLIC "-//W3C//DTD SVG 20010904//EN"
 "http://www.w3.org/TR/2001/REC-SVG-20010904/DTD/svg10.dtd">
<svg version="1.0" xmlns="http://www.w3.org/2000/svg"
 width="128.000000pt" height="128.000000pt" viewBox="0 0 128.000000 128.000000"
 preserveAspectRatio="xMidYMid meet">
<metadata>
Created by potrace 1.14, written by Peter Selinger 2001-2017
</metadata>
<g transform="translate(0.000000,128.000000) scale(0.100000,-0.100000)"
fill="#000000" stroke="none">
<path d="M805 1209 c-49 -11 -99 -21 -110 -23 -11 -2 -31 -7 -45 -10 -14 -3
-36 -8 -50 -10 -14 -3 -58 -12 -97 -20 -40 -9 -86 -18 -103 -21 -16 -3 -58
-12 -93 -20 -61 -14 -104 -23 -120 -24 -4 -1 -6 -14 -5 -29 1 -15 -2 -34 -7
-41 -5 -10 -4 -12 3 -7 12 7 17 -16 14 -57 -1 -10 2 -15 8 -12 5 3 7 0 4 -8
-2 -8 -45 -31 -94 -53 -61 -26 -89 -44 -88 -54 1 -8 -1 -20 -5 -26 -4 -7 0
-11 11 -10 9 0 17 -6 17 -14 0 -8 6 -20 14 -26 8 -6 11 -16 7 -22 -4 -7 -1
-12 6 -12 16 0 41 -37 33 -50 -4 -6 -2 -10 4 -10 6 0 18 -12 27 -26 15 -22 15
-27 3 -36 -11 -8 -10 -9 4 -4 13 4 20 0 24 -14 3 -11 10 -20 15 -20 5 0 6 -5
3 -10 -3 -6 1 -13 10 -16 12 -5 13 -9 5 -14 -9 -5 -6 -10 9 -15 12 -3 19 -11
16 -16 -4 -5 0 -9 7 -9 9 0 9 -3 -2 -10 -13 -8 -13 -10 1 -10 18 0 33 -26 24
-40 -3 -5 6 -17 19 -27 26 -21 69 -97 59 -107 -4 -3 -1 -6 5 -6 7 0 12 -10 12
-22 2 -83 1 -78 23 -67 17 10 19 9 14 -5 -6 -14 -3 -15 13 -6 16 9 20 8 20 -5
0 -11 9 -15 29 -13 16 1 28 5 25 10 -2 4 6 12 18 19 22 12 22 11 8 -6 -14 -17
-14 -17 7 -5 12 8 19 18 16 24 -4 5 1 7 10 3 9 -3 19 -1 23 5 5 7 2 8 -7 3
-11 -6 -11 -5 -2 5 6 7 33 14 59 16 42 4 45 3 33 -13 -8 -9 -9 -14 -3 -10 8 4
12 -3 12 -21 0 -50 6 -81 16 -75 5 4 7 -1 3 -9 -4 -12 -1 -14 15 -10 13 3 19
1 15 -5 -3 -5 0 -10 8 -10 8 0 12 4 9 9 -3 4 0 8 5 8 6 0 11 -6 11 -12 0 -9 4
-8 10 2 8 12 10 12 11 -5 0 -18 1 -19 8 -2 9 25 17 25 36 2 9 -11 14 -15 11
-8 -4 6 -2 14 4 18 5 3 10 1 10 -4 0 -6 5 -11 11 -11 5 0 8 3 5 8 -2 4 20 7
49 7 29 0 52 -2 50 -6 -2 -3 2 -6 10 -6 8 0 12 4 9 9 -3 4 0 8 5 8 6 0 11 -3
11 -8 0 -4 9 -13 19 -19 16 -10 22 -9 33 5 11 15 11 16 -3 4 -13 -10 -18 -10
-27 1 -9 10 -2 13 33 13 24 0 41 -4 39 -8 -6 -10 10 -11 20 -1 10 11 37 12 30
2 -3 -5 -10 -6 -16 -3 -7 4 -8 2 -4 -4 8 -13 36 -5 36 11 0 6 7 2 15 -9 13
-16 14 -16 9 -1 -7 19 12 24 19 5 3 -8 6 -5 6 6 1 14 4 16 14 8 18 -15 18 -22
21 380 l3 357 -24 23 c-20 19 -35 22 -103 23 -77 0 -80 1 -91 27 -6 15 -12 40
-14 55 -1 16 -5 35 -8 43 -3 8 -8 29 -11 45 -3 17 -10 50 -16 75 -7 25 -14 56
-16 69 -10 48 -3 47 -129 20z m-524 -816 c13 -16 12 -17 -3 -4 -10 7 -18 15
-18 17 0 8 8 3 21 -13z"/>
<path d="M856 68 c3 -5 10 -6 15 -3 13 9 11 12 -6 12 -8 0 -12 -4 -9 -9z"/>
</g>
</svg>
